<?xml version="1.0" encoding="UTF-8"?><svg id="Layer_2" xmlns="http://www.w3.org/2000/svg" viewBox="0 0 280.24 51.18"><defs><style>.cls-1{fill:#505f94;font-family:Outfit-SemiBold, Outfit;font-size:21px;font-variation-settings:'wght' 600;font-weight:600;}.cls-2{letter-spacing:.08em;}.cls-3{fill:#50568e;}.cls-3,.cls-4{stroke-width:0px;}.cls-4{fill:#222221;}</style></defs><g id="Layer_1-2"><text class="cls-1" transform="translate(182.78 45.85)"><tspan class="cls-2" x="0" y="0">solution</tspan><tspan x="88.14" y="0">s</tspan></text><path class="cls-3" d="m48.4,24.99c-1.73,0-3.34-.32-4.83-.96-1.49-.64-2.8-1.54-3.92-2.7-1.12-1.15-2-2.49-2.62-4.01-.63-1.52-.95-3.14-.95-4.87s.31-3.38.95-4.88c.63-1.5,1.5-2.83,2.61-3.97,1.11-1.14,2.4-2.03,3.88-2.66,1.48-.63,3.08-.95,4.81-.95s3.33.31,4.81.95c1.48.63,2.78,1.52,3.9,2.66,1.12,1.14,2,2.47,2.62,3.99.63,1.52.95,3.15.95,4.9s-.32,3.35-.95,4.87-1.5,2.85-2.61,3.99c-1.11,1.14-2.4,2.04-3.88,2.68-1.48.64-3.08.96-4.78.96Zm-.07-3.15c1.73,0,3.25-.4,4.58-1.21,1.33-.81,2.37-1.91,3.13-3.33.76-1.41,1.14-3.03,1.14-4.85,0-1.35-.22-2.6-.65-3.73s-1.04-2.12-1.84-2.96c-.79-.84-1.73-1.49-2.8-1.94-1.07-.46-2.26-.68-3.57-.68-1.73,0-3.25.4-4.57,1.19-1.32.79-2.36,1.89-3.12,3.29-.76,1.4-1.14,3.01-1.14,4.83,0,1.35.22,2.61.65,3.76.43,1.15,1.04,2.15,1.82,2.97.78.83,1.71,1.48,2.8,1.94,1.08.47,2.27.7,3.55.7Z"/><path class="cls-3" d="m85.03,24.99c-1.73,0-3.34-.32-4.83-.96-1.49-.64-2.8-1.54-3.92-2.7-1.12-1.15-2-2.49-2.62-4.01-.63-1.52-.95-3.14-.95-4.87s.31-3.38.95-4.88c.63-1.5,1.5-2.83,2.61-3.97,1.11-1.14,2.4-2.03,3.88-2.66,1.48-.63,3.08-.95,4.81-.95s3.33.31,4.81.95c1.48.63,2.78,1.52,3.9,2.66,1.12,1.14,1.99,2.47,2.62,3.99.63,1.52.94,3.15.94,4.9s-.31,3.35-.94,4.87c-.63,1.52-1.5,2.85-2.61,3.99-1.11,1.14-2.4,2.04-3.89,2.68-1.48.64-3.08.96-4.78.96Zm-.07-3.15c1.73,0,3.25-.4,4.58-1.21,1.33-.81,2.37-1.91,3.13-3.33.76-1.41,1.14-3.03,1.14-4.85,0-1.35-.21-2.6-.65-3.73s-1.04-2.12-1.84-2.96c-.79-.84-1.73-1.49-2.8-1.94-1.07-.46-2.26-.68-3.57-.68-1.73,0-3.25.4-4.57,1.19-1.32.79-2.36,1.89-3.12,3.29-.76,1.4-1.14,3.01-1.14,4.83,0,1.35.22,2.61.65,3.76.43,1.15,1.04,2.15,1.82,2.97.78.83,1.71,1.48,2.8,1.94,1.08.47,2.27.7,3.55.7Z"/><ellipse class="cls-3" cx="52.23" cy="12.5" rx="7.12" ry="6.17"/><ellipse class="cls-3" cx="88.83" cy="12.5" rx="7.12" ry="6.17"/><polygon class="cls-4" points="11.81 15.81 2.31 .2 0 .2 0 24.49 3.29 24.49 3.29 7.4 10.64 19.52 12.98 19.52 20.33 7.4 20.33 24.49 23.62 24.49 23.62 .2 21.31 .2 11.81 15.81"/><polygon class="cls-4" points="114.24 .2 110.95 .2 110.95 24.49 113.19 24.49 114.24 24.49 126.21 24.49 126.21 21.48 114.24 21.48 114.24 .2"/><path class="cls-4" d="m146.22.2l-9.98,24.29h3.54l2.2-5.5h10.76l2.19,5.5h3.57L148.6.2h-2.38Zm-3.09,15.93l4.24-10.6,4.23,10.6h-8.47Z"/><polygon class="cls-4" points="186.77 10.42 174.38 10.42 174.38 .2 171.09 .2 171.09 24.49 174.38 24.49 174.38 13.43 186.77 13.43 186.77 24.49 190.06 24.49 190.06 .2 186.77 .2 186.77 10.42"/><rect class="cls-4" x="203.91" y="14.09" width="11.52" height="3.01"/><polygon class="cls-4" points="232.56 .2 229.27 .2 229.27 24.49 231.51 24.49 232.56 24.49 244.53 24.49 244.53 21.48 232.56 21.48 232.56 .2"/><path class="cls-4" d="m273.25,24.49h3.57L266.92.2h-2.38l-9.98,24.29h3.54l2.2-5.5h10.76l2.19,5.5Zm-11.81-8.37l4.24-10.6,4.23,10.6h-8.47Z"/></g></svg>